HIERARCHY
ROOT Hips
{
  OFFSET 196.326 95.9168 97.7182
  CHANNELS 6 Xposition Yposition Zposition Zrotation Xrotation Yrotation
  JOINT LeftUpLeg
  {
    OFFSET 8.64259 1.95398 -2.38835
    CHANNELS 3 Zrotation Xrotation Yrotation
    JOINT LeftLeg
    {
      OFFSET 43.7702 0 0
      CHANNELS 3 Zrotation Xrotation Yrotation
      JOINT LeftFoot
      {
        OFFSET 40.6238 0 0
        CHANNELS 3 Zrotation Xrotation Yrotation
        JOINT LeftToeBase
        {
          OFFSET 12.7242 0 0
          CHANNELS 3 Zrotation Xrotation Yrotation
          End Site
          {
            OFFSET 0 0 0
          }
        }
      }
    }
  }
  JOINT RightUpLeg
  {
    OFFSET -8.2249 1.95398 -2.59336
    CHANNELS 3 Zrotation Xrotation Yrotation
    JOINT RightLeg
    {
      OFFSET 43.5653 0 0
      CHANNELS 3 Zrotation Xrotation Yrotation
      JOINT RightFoot
      {
        OFFSET 40.6238 0 0
        CHANNELS 3 Zrotation Xrotation Yrotation
        JOINT RightToeBase
        {
          OFFSET 12.7242 0 0
          CHANNELS 3 Zrotation Xrotation Yrotation
          End Site
          {
            OFFSET 0 0 0
          }
        }
      }
    }
  }
  JOINT Spine
  {
    OFFSET 0.165834 0.87714 6.61349
    CHANNELS 3 Zrotation Xrotation Yrotation
    JOINT Spine1
    {
      OFFSET 7.38963 1.71661e-005 0
      CHANNELS 3 Zrotation Xrotation Yrotation
      JOINT Spine2
      {
        OFFSET 11.9445 1.14441e-005 0
        CHANNELS 3 Zrotation Xrotation Yrotation
        JOINT Spine3
        {
          OFFSET 14.7254 4.19617e-005 0
          CHANNELS 3 Zrotation Xrotation Yrotation
          JOINT Spine4
          {
            OFFSET 10.9679 0 0
            CHANNELS 3 Zrotation Xrotation Yrotation
            JOINT RightShoulder
            {
              OFFSET 2.46616 -1.6653 3.69651
              CHANNELS 3 Zrotation Xrotation Yrotation
              JOINT RightArm
              {
                OFFSET 13.0012 0 0
                CHANNELS 3 Zrotation Xrotation Yrotation
                JOINT RightForeArm
                {
                  OFFSET 28.7848 1.52588e-005 0
                  CHANNELS 3 Zrotation Xrotation Yrotation
                  JOINT RightHand
                  {
                    OFFSET 26.5688 1.52588e-005 0
                    CHANNELS 3 Zrotation Xrotation Yrotation
                    End Site
                    {
                      OFFSET 0 0 0
                    }
                  }
                }
              }
            }
            JOINT LeftShoulder
            {
              OFFSET 2.38034 -1.29275 -3.75231
              CHANNELS 3 Zrotation Xrotation Yrotation
              JOINT LeftArm
              {
                OFFSET 16.3182 6.10351e-005 0
                CHANNELS 3 Zrotation Xrotation Yrotation
                JOINT LeftForeArm
                {
                  OFFSET 27.0901 0 0
                  CHANNELS 3 Zrotation Xrotation Yrotation
                  JOINT LeftHand
                  {
                    OFFSET 24.5451 1.52588e-005 0
                    CHANNELS 3 Zrotation Xrotation Yrotation
                    End Site
                    {
                      OFFSET 0 0 0
                    }
                  }
                }
              }
            }
            JOINT Neck
            {
              OFFSET 5.0226 -0.0266342 0
              CHANNELS 3 Zrotation Xrotation Yrotation
              JOINT Head
              {
                OFFSET 6.69363 2.86102e-005 0
                CHANNELS 3 Zrotation Xrotation Yrotation
                End Site
                {
                  OFFSET 0 0 0
                }
              }
            }
          }
        }
      }
    }
  }
}
MOTION
Frames:	9
Frame Time:	0.0416667
35.8964 97.161 -242.01 -42.5775 -83.9234 -42.3049 -173.151 7.72591 87.7478 -11.1139 13.7616 -1.64591 60.2137 9.73093 20.1018 41.3702 10.8465 -30.1352 179.292 9.61983 91.8983 -17.7172 3.37377 -0.860025 68.6387 -2.77725 -1.47061 31.5069 -0.43612 15.3764 -0.0661879 6.79473 -89.9659 13.2845 -0.114839 0.0827243 1.61351 -0.111083 0.0876828 -20.9217 -0.134394 0.0443908 -0.909039 -0.134399 0.0443727 81.3154 -49.55 -114.114 30.9841 -5.07509 9.06369 -12.6546 -15.5137 -43.7659 -9.95072 -1.28438 10.4089 -101.908 -43.0151 58.3121 -31.2278 6.30959 4.58278 5.10701 8.52284 -31.2098 9.76895 0.866234 4.60806 15.3997 2.9134 0.671936 -6.30311 2.65503 2.47938 
35.9495 97.1789 -241.939 -43.1003 -83.866 -42.767 -173.198 7.71073 87.759 -11.29 13.1415 -1.52014 60.9444 9.90674 19.0786 39.6628 9.85074 -28.4765 179.258 9.52946 91.8967 -17.5905 3.74433 -0.815067 68.5565 -2.76522 -1.46564 31.9484 -0.418499 17.2871 -0.0249413 6.80549 -89.9574 13.2629 -0.0288842 0.0889149 1.59194 -0.0249365 0.0900976 -20.9432 -0.0542646 0.0761258 -0.930545 -0.0542739 0.0761187 81.3482 -49.639 -114.031 31.0403 -5.11986 9.0218 -12.7867 -15.61 -43.8059 -9.60566 -1.2855 10.9991 -102.312 -42.8107 57.5991 -31.0261 6.29446 4.78369 5.07569 8.49572 -31.1795 10.1214 0.923858 4.87413 15.3783 2.85565 0.597311 -6.22394 2.62107 2.43442 
35.9649 97.1443 -241.803 -45.5694 -83.5782 -45.0428 -173.062 7.5809 87.9314 -11.1906 13.0734 -1.56614 60.8676 10.0184 19.6653 40.8171 10.5232 -29.7064 179.393 9.31394 92.034 -17.1756 3.36199 -0.888766 68.003 -2.6538 -1.41454 33.1094 -0.171209 17.3909 0.0173189 6.80954 -89.9586 13.2547 0.0543913 0.0760743 1.58381 0.0576858 0.0736018 -20.9513 0.0290121 0.0889158 -0.93869 0.0290065 0.0889012 81.1598 -49.8602 -114.228 30.653 -5.49745 8.84544 -12.1028 -15.8311 -43.3758 -9.48007 -1.26422 10.8918 -101.64 -42.6642 58.5661 -31.1953 6.58432 4.49842 5.21755 8.95849 -31.4216 10.3328 1.03726 5.73724 15.4375 2.91415 0.281028 -6.1098 2.76743 2.67396 
36.0422 97.1466 -241.758 -38.9316 -83.8707 -38.532 -173.143 7.61523 87.7885 -10.7294 13.5956 -1.61109 61.0221 10.0312 19.2941 39.6498 9.87512 -28.0101 179.215 9.26748 91.8439 -16.9073 3.4213 -0.777163 68.6409 -2.81582 -1.49014 31.8943 -0.405714 16.6949 -0.0424951 6.78689 -89.9622 13.3001 -0.0659896 0.0840374 1.62915 -0.0622201 0.0868572 -20.906 -0.0881972 0.0603237 -0.893349 -0.0881948 0.0603188 81.228 -49.8825 -114.118 30.5418 -5.37506 9.15309 -12.9307 -15.9685 -44.1278 -8.58603 -1.18148 11.3869 -101.923 -42.7865 58.1859 -31.0632 6.4969 4.57589 5.34757 9.08841 -31.6053 10.5527 1.08872 6.01203 15.3767 3.10214 0.405843 -6.09891 2.91775 2.8721 
36.097 97.1052 -241.649 -38.3304 -83.8112 -37.914 -173.261 7.49755 87.6825 -10.5039 13.6336 -1.52626 60.9823 10.4412 19.9543 39.9193 9.96366 -29.3438 179.102 9.22742 91.7614 -16.8579 3.24468 -0.689431 69.0439 -2.9015 -1.52862 31.1974 -0.514467 15.7719 -0.0316486 6.79693 -89.9628 13.2801 -0.0447955 0.0800451 1.60912 -0.0412418 0.0819269 -20.926 -0.0667971 0.062866 -0.913387 -0.066782 0.0628735 81.1104 -49.7982 -114.325 30.4859 -5.42679 9.09685 -12.6845 -15.6975 -43.7591 -7.92884 -1.08082 11.0922 -101.789 -42.7812 58.3893 -31.0644 6.50238 4.33561 5.47611 9.33035 -31.645 10.3541 1.10425 6.313 15.4383 3.11993 0.222401 -6.23583 2.98089 2.81778 
36.1464 97.1161 -241.5 -36.1262 -83.7224 -35.7032 -173.185 7.56144 87.7016 -10.4201 13.2375 -1.56806 61.3248 10.2573 19.192 40.032 10.029 -29.474 179.208 9.07656 91.7763 -16.2928 3.30509 -0.777921 68.7975 -2.86352 -1.51313 32.1076 -0.349339 16.2992 -0.0113586 6.77775 -89.9659 13.3184 -0.00601312 0.0690305 1.64743 -0.00295759 0.0692236 -20.8877 -0.0264836 0.064033 -0.87507 -0.0264792 0.0640327 81.3272 -49.694 -114.042 30.6249 -5.60509 9.04528 -12.0289 -15.8402 -43.1271 -9.21134 -1.2257 10.8496 -102.039 -42.727 57.9798 -31.0258 6.47977 4.55266 5.33523 8.97895 -31.626 10.1094 0.978458 5.38266 15.4785 3.05292 0.17954 -6.65004 2.9171 2.85294 
36.2066 97.0958 -241.333 -34.2248 -83.6555 -33.8804 -173.33 7.50578 87.5527 -10.1413 13.7213 -1.54825 61.0584 10.4079 19.8189 40.1751 10.1193 -29.5319 179.088 9.28265 91.6402 -16.5857 3.50054 -0.699907 68.9607 -2.8573 -1.50753 32.2043 -0.332652 16.4124 -0.01372 6.7571 -89.9545 13.3597 -0.00517019 0.0918243 1.6887 -0.00112771 0.0919531 -20.8464 -0.0325322 0.0860272 -0.833781 -0.0325294 0.0860205 81.0626 -50.0417 -114.302 30.3074 -5.35031 9.66803 -12.5542 -15.9852 -43.7608 -8.85371 -1.17601 10.7704 -102.08 -42.8021 57.9518 -31.1156 6.51485 4.66041 5.43958 9.24542 -31.6038 10.0647 1.00546 5.66241 15.5945 3.05056 0.331044 -6.78962 2.86898 2.48741 
36.3648 97.0142 -241.199 -30.4673 -83.6837 -30.0728 -173.774 7.87657 87.2826 -10.7586 13.2711 -1.12292 61.3572 11.0141 20.0785 40.4234 10.259 -29.8298 179.033 9.35684 91.5745 -16.6611 3.86827 -0.660027 69.4561 -2.92908 -1.53563 31.0289 -0.57725 16.3523 -0.0317346 6.76283 -89.9587 13.3482 -0.0429714 0.0880464 1.67725 -0.0390505 0.0898465 -20.8579 -0.0674509 0.071066 -0.845247 -0.0674471 0.0710597 81.3559 -49.8605 -113.935 30.3308 -5.57754 9.09515 -11.4955 -15.7752 -42.7486 -8.7003 -1.16134 10.8238 -102.181 -42.6717 57.7373 -31.2394 6.24419 4.80764 5.6096 9.22414 -31.7293 9.68102 0.969956 5.64841 15.7931 2.89918 0.435101 -6.79648 2.69202 2.24918 
36.4316 97.0659 -241.042 -27.9513 -83.8912 -27.6155 -173.436 7.38607 87.3894 -10.0692 13.6827 -1.48353 61.6413 10.8606 19.6082 39.7508 9.83617 -29.6092 178.725 8.82476 91.4486 -15.7877 6.07927 -0.332571 69.0906 -2.86796 -1.50812 32.1831 -0.484856 20.7091 -0.0272438 6.77385 -89.9706 13.3262 -0.039843 0.0638457 1.65523 -0.0369984 0.065534 -20.8799 -0.057187 0.0489279 -0.867269 -0.0571978 0.0489139 81.5682 -49.6559 -113.696 30.6544 -5.0274 9.53014 -12.3189 -15.8925 -43.4872 -7.74341 -1.04878 10.9268 -102.785 -42.9563 56.9444 -30.8708 6.43754 4.97461 5.10212 8.62857 -31.3003 9.95477 0.901908 4.80053 15.3303 2.76767 0.18069 -6.26765 2.65053 2.97631 
